<svg xmlns="http://www.w3.org/2000/svg" viewBox="0 0 128 128" role="img" aria-label="突然変異タマゴ">
  <defs>
    <radialGradient id="egg" cx="38%" cy="28%" r="72%">
      <stop offset="0" stop-color="#fff7ff"/>
      <stop offset="0.36" stop-color="#e8bcff"/>
      <stop offset="0.72" stop-color="#a967e8"/>
      <stop offset="1" stop-color="#6a37ae"/>
    </radialGradient>
    <linearGradient id="glow" x1="0" y1="0" x2="1" y2="1">
      <stop offset="0" stop-color="#76f5ff"/>
      <stop offset="0.5" stop-color="#e6ff8a"/>
      <stop offset="1" stop-color="#ff7bd5"/>
    </linearGradient>
    <filter id="shadow" x="-30%" y="-30%" width="160%" height="170%">
      <feDropShadow dx="0" dy="5" stdDeviation="5" flood-color="#55308b" flood-opacity="0.34"/>
    </filter>
  </defs>
  <ellipse cx="64" cy="111" rx="35" ry="8" fill="#684193" opacity="0.18"/>
  <path d="M64 13c-22 0-42 35-42 65 0 25 17 39 42 39s42-14 42-39c0-30-20-65-42-65z" fill="url(#egg)" stroke="#5c3198" stroke-width="5" filter="url(#shadow)"/>
  <path d="M39 48c8-18 17-25 27-26" fill="none" stroke="#fff" stroke-width="7" stroke-linecap="round" opacity="0.52"/>
  <path d="M43 67l13 10-8 13 18-7 7 17 8-22 15-8-18-5-5-18-9 15z" fill="url(#glow)" stroke="#fff" stroke-width="3" stroke-linejoin="round"/>
  <circle cx="34" cy="83" r="5" fill="#81efff" opacity="0.9"/>
  <circle cx="89" cy="42" r="4" fill="#fff58d" opacity="0.95"/>
  <circle cx="92" cy="91" r="3" fill="#ff91de" opacity="0.95"/>
</svg>
